HIERARCHY
ROOT Hips
{
	OFFSET 54.227600 -13.960316 95.683601
	CHANNELS 6 Xposition Yposition Zposition Xrotation Yrotation Zrotation
	JOINT spine
	{
		OFFSET 0.000000 -0.458069 7.965683
		CHANNELS 3 Xrotation Yrotation Zrotation
		JOINT spine1
		{
			OFFSET 0.000000 -0.000001 10.243103
			CHANNELS 3 Xrotation Yrotation Zrotation
			JOINT spine2
			{
				OFFSET 0.000000 -0.000002 9.814751
				CHANNELS 3 Xrotation Yrotation Zrotation
				JOINT Neck
				{
					OFFSET 0.000000 -1.201384 25.198593
					CHANNELS 3 Xrotation Yrotation Zrotation
					JOINT Head
					{
						OFFSET 0.000000 -0.000002 7.613144
						CHANNELS 3 Xrotation Yrotation Zrotation
						End Site
						{
							OFFSET 0.000000 6.077327 18.428101
						}
					}
				}
				JOINT RightShoulder
				{
					OFFSET -4.132698 0.575449 10.599197
					CHANNELS 3 Xrotation Yrotation Zrotation
					JOINT RightArm
					{
						OFFSET 0.000000 -0.000002 13.901794
						CHANNELS 3 Xrotation Yrotation Zrotation
						JOINT RightArmRoll
						{
							OFFSET 0.000000 -0.000002 7.017883
							CHANNELS 3 Xrotation Yrotation Zrotation
							JOINT RightForeArm
							{
								OFFSET 0.000000 -0.000003 20.440598
								CHANNELS 3 Xrotation Yrotation Zrotation
								JOINT RightForeArmRoll
								{
									OFFSET 0.000000 -0.000001 7.875168
									CHANNELS 3 Xrotation Yrotation Zrotation
									JOINT RightHand
									{
										OFFSET 0.000000 -0.000003 15.803696
										CHANNELS 3 Xrotation Yrotation Zrotation
										End Site
										{
											OFFSET 0.000000 0.000000 0.100006
										}
									}
								}
							}
						}
					}
				}
				JOINT LeftShoulder
				{
					OFFSET 4.132698 0.575449 10.599197
					CHANNELS 3 Xrotation Yrotation Zrotation
					JOINT LeftArm
					{
						OFFSET 0.000000 -0.000002 13.901794
						CHANNELS 3 Xrotation Yrotation Zrotation
						JOINT LeftArmRoll
						{
							OFFSET 0.000000 -0.000002 7.017883
							CHANNELS 3 Xrotation Yrotation Zrotation
							JOINT LeftForeArm
							{
								OFFSET 0.000000 -0.000003 20.440598
								CHANNELS 3 Xrotation Yrotation Zrotation
								JOINT LeftForeArmRoll
								{
									OFFSET 0.000000 -0.000001 7.875153
									CHANNELS 3 Xrotation Yrotation Zrotation
									JOINT LeftHand
									{
										OFFSET 0.000000 -0.000003 15.803696
										CHANNELS 3 Xrotation Yrotation Zrotation
										End Site
										{
											OFFSET 0.000000 0.000000 0.100006
										}
									}
								}
							}
						}
					}
				}
			}
		}
	}
	JOINT RightUpLeg
	{
		OFFSET -7.060478 1.086090 -1.294701
		CHANNELS 3 Xrotation Yrotation Zrotation
		JOINT RightUpLegRoll
		{
			OFFSET 0.000000 -0.000003 18.530800
			CHANNELS 3 Xrotation Yrotation Zrotation
			JOINT RightLeg
			{
				OFFSET 0.000000 0.000004 -22.947601
				CHANNELS 3 Xrotation Yrotation Zrotation
				JOINT RightLegRoll
				{
					OFFSET 0.000000 -0.000004 23.022598
					CHANNELS 3 Xrotation Yrotation Zrotation
					JOINT RightFoot
					{
						OFFSET 0.000000 -0.000004 19.162498
						CHANNELS 3 Xrotation Yrotation Zrotation
						JOINT RightToeBase
						{
							OFFSET 0.000000 -0.000002 16.018799
							CHANNELS 3 Xrotation Yrotation Zrotation
							End Site
							{
								OFFSET 0.006790 0.894205 7.757812
							}
						}
					}
				}
			}
		}
	}
	JOINT LeftUpLeg
	{
		OFFSET 7.060478 1.086090 -1.294701
		CHANNELS 3 Xrotation Yrotation Zrotation
		JOINT LeftUpLegRoll
		{
			OFFSET 0.000000 -0.000003 18.530899
			CHANNELS 3 Xrotation Yrotation Zrotation
			JOINT LeftLeg
			{
				OFFSET 0.000000 -0.000004 22.947495
				CHANNELS 3 Xrotation Yrotation Zrotation
				JOINT LeftLegRoll
				{
					OFFSET 0.000000 -0.000004 23.235504
					CHANNELS 3 Xrotation Yrotation Zrotation
					JOINT LeftFoot
					{
						OFFSET 0.000000 -0.000003 18.949600
						CHANNELS 3 Xrotation Yrotation Zrotation
						JOINT LeftToeBase
						{
							OFFSET 0.000000 -0.000003 16.018799
							CHANNELS 3 Xrotation Yrotation Zrotation
							End Site
							{
								OFFSET -0.030430 0.894205 7.757812
							}
						}
					}
				}
			}
		}
	}
}
MOTION
Frames: 13
Frame Time: 0.041667
53.450199 -12.839014 95.695389 -3.006628 0.642875 -0.988264 -1.763420 -0.268300 0.052942 0.476332 -0.538270 0.114822 2.121423 -0.536861 0.121259 25.065401 5.398558 -0.478695 -3.586496 -2.030649 0.003077 12.282304 -72.766062 11.702517 -53.102282 -112.487150 -24.390175 -0.000003 0.000004 -0.000003 0.004616 2.263970 0.333455 0.000001 0.000017 -3.006700 -5.000130 -8.000009 0.000012 5.572701 75.406053 -4.064514 -64.678948 111.077515 38.790366 0.000003 -0.000000 0.000001 3.187466 -0.891579 -0.497272 -0.000003 -0.000005 3.014160 -5.000167 8.000129 -0.000005 4.532729 -175.724361 -1.647652 -179.999991 0.000005 -1.193994 176.734136 -2.290274 -0.511649 -0.000001 -0.000001 0.031799 69.223154 6.956631 1.947044 25.456950 -7.355611 -0.000000 3.134625 173.904061 -0.059103 -0.000005 -0.000005 -1.223970 -6.224254 1.811595 0.288190 -0.000007 -0.000002 -0.132972 70.535487 -6.948506 -1.896878 25.539681 7.355462 -0.122271 
53.449902 -12.841516 95.694496 -3.001401 0.646072 -0.985896 -1.764278 -0.265704 0.052210 0.474771 -0.533556 0.112311 2.119860 -0.532181 0.118687 25.066994 5.345560 -0.467135 -3.587552 -1.981412 0.007898 12.241766 -72.780891 11.656188 -53.100005 -112.399990 -24.299378 -0.000003 0.000004 -0.000004 0.025904 2.313629 0.337719 0.000004 0.000018 -3.006701 -5.000133 -8.000010 0.000008 5.545861 75.369136 -4.040776 -64.620017 111.085705 38.749115 -0.000001 -0.000000 0.000002 3.167132 -0.879195 -0.496952 -0.000003 -0.000006 3.014162 -5.000165 8.000131 -0.000004 4.533333 -175.729361 -1.651591 -179.999991 0.000005 -1.193994 176.740557 -2.290288 -0.511392 -0.000001 -0.000001 0.031799 69.223899 6.956630 1.947098 25.456955 -7.355613 -0.000001 3.131191 173.900059 -0.061490 -0.000005 -0.000004 -1.223990 -6.223755 1.812352 0.288189 -0.000007 -0.000002 -0.132972 70.536450 -6.948515 -1.896819 25.539684 7.355461 -0.121890 
53.447102 -12.839613 95.696999 -2.996483 0.649522 -0.983510 -1.765109 -0.263139 0.051424 0.473259 -0.528929 0.109649 2.118349 -0.527592 0.115966 25.070076 5.291758 -0.455221 -3.590061 -1.930966 0.012988 12.207261 -72.797584 11.616084 -53.095708 -112.313343 -24.206841 -0.000005 0.000004 -0.000004 0.046860 2.363209 0.341917 0.000001 0.000017 -3.006699 -5.000133 -8.000008 0.000011 5.520803 75.332274 -4.018934 -64.562308 111.093689 38.708468 0.000000 -0.000000 -0.000000 3.146274 -0.867177 -0.496639 -0.000005 -0.000005 3.014160 -5.000166 8.000130 -0.000005 4.534386 -175.734347 -1.655646 -179.999991 0.000004 -1.193994 176.747237 -2.289308 -0.511069 -0.000001 -0.000001 0.031799 69.224637 6.956633 1.947051 25.456952 -7.355613 0.000000 3.127960 173.895045 -0.064164 -0.000005 -0.000004 -1.224030 -6.223589 1.813128 0.288189 -0.000007 -0.000002 -0.132972 70.537611 -6.948491 -1.896842 25.539580 7.355467 -0.121457 
53.447300 -12.841914 95.697792 -2.991773 0.653149 -0.981115 -1.765929 -0.260595 0.050600 0.471780 -0.524363 0.106880 2.116877 -0.523067 0.113138 25.074067 5.237385 -0.443042 -3.593588 -1.879660 0.018270 12.176957 -72.815520 11.580313 -53.087410 -112.227801 -24.110122 -0.000005 0.000005 -0.000004 0.067583 2.412719 0.346056 0.000002 0.000017 -3.006702 -5.000132 -8.000010 0.000010 5.497118 75.295684 -3.998540 -64.505693 111.101401 38.668604 0.000002 -0.000001 -0.000001 3.125048 -0.855417 -0.496317 -0.000003 -0.000006 3.014159 -5.000167 8.000129 -0.000006 4.535766 -175.740330 -1.659857 -179.999991 0.000005 -1.193994 176.754012 -2.289324 -0.511796 -0.000001 -0.000001 0.031799 69.225381 6.956631 1.947104 25.456948 -7.355611 0.000000 3.124871 173.890032 -0.067002 -0.000005 -0.000004 -1.224060 -6.223650 1.813912 0.288189 -0.000007 -0.000002 -0.132972 70.538895 -6.948502 -1.896862 25.539587 7.355467 -0.121008 
53.448299 -12.840816 95.696495 -2.987185 0.656880 -0.978712 -1.766737 -0.258064 0.049753 0.470321 -0.519834 0.104050 2.115416 -0.518577 0.110250 25.078669 5.182685 -0.430706 -3.597710 -1.827853 0.023669 12.149003 -72.834146 11.546967 -53.081273 -112.141727 -24.015843 -0.000004 0.000005 -0.000004 0.088172 2.462187 0.350150 0.000004 0.000017 -3.006699 -5.000132 -8.000008 0.000010 5.474177 75.259081 -3.978943 -64.449685 111.108914 38.629002 0.000001 -0.000000 0.000001 3.103606 -0.843807 -0.495998 0.000001 -0.000005 3.014161 -5.000167 8.000130 -0.000008 4.537338 -175.745330 -1.664044 -179.999991 0.000005 -1.193994 176.760883 -2.289338 -0.511521 -0.000000 -0.000001 0.031799 69.226119 6.956630 1.947058 25.456948 -7.355613 0.000000 3.121873 173.885019 -0.069934 -0.000005 -0.000004 -1.224110 -6.223843 1.814698 0.288188 -0.000008 -0.000002 -0.132972 70.540288 -6.948514 -1.896878 25.539578 7.355458 -0.120553 
53.443901 -12.842712 95.696800 -2.982631 0.660638 -0.976319 -1.767549 -0.255535 0.048901 0.468869 -0.515315 0.101204 2.113963 -0.514099 0.107345 25.083489 5.127889 -0.418317 -3.602002 -1.775917 0.029104 12.121690 -72.853017 11.514286 -53.073063 -112.056165 -23.919377 -0.000003 0.000005 -0.000006 0.108726 2.511655 0.354201 0.000002 0.000017 -3.006701 -5.000132 -8.000008 0.000010 5.451577 75.222567 -3.959695 -64.393862 111.116536 38.589592 0.000002 -0.000000 0.000002 3.082105 -0.832235 -0.495667 -0.000004 -0.000005 3.014160 -5.000163 8.000131 -0.000005 4.538948 -175.751313 -1.668318 -179.999991 0.000005 -1.193994 176.767768 -2.288359 -0.511190 -0.000000 -0.000001 0.031799 69.226863 6.956630 1.947110 25.456950 -7.355611 -0.000001 3.118904 173.880019 -0.072893 -0.000005 -0.000005 -1.224150 -6.224076 1.815492 0.288189 -0.000007 -0.000002 -0.132972 70.541681 -6.948525 -1.896795 25.539583 7.355458 -0.120093 
53.455601 -12.847413 95.697693 -2.978020 0.664350 -0.973919 -1.768366 -0.253001 0.048059 0.467406 -0.510778 0.098386 2.112502 -0.509602 0.104468 25.088043 5.073257 -0.405989 -3.606016 -1.724202 0.034498 12.093220 -72.871548 11.480401 -53.063268 -111.971341 -23.821075 -0.000005 0.000003 -0.000007 0.129342 2.561143 0.358223 0.000002 0.000017 -3.006698 -5.000134 -8.000010 0.000009 5.428784 75.185957 -3.940231 -64.337705 111.124138 38.549926 -0.000001 0.000000 0.000003 3.060706 -0.820597 -0.495325 -0.000004 -0.000005 3.014162 -5.000164 8.000129 -0.000006 4.540486 -175.756313 -1.672499 -179.999991 0.000005 -1.193994 176.774612 -2.288374 -0.511927 -0.000001 -0.000001 0.031799 69.227697 6.956599 1.947054 25.456953 -7.355613 0.000000 3.115890 173.875006 -0.075806 -0.000005 -0.000004 -1.224200 -6.224259 1.816276 0.288189 -0.000008 -0.000002 -0.132972 70.543054 -6.948504 -1.896903 25.539582 7.355459 -0.119634 
53.452000 -12.847315 95.698906 -2.973262 0.667941 -0.971528 -1.769190 -0.250454 0.047243 0.465921 -0.506199 0.095641 2.111022 -0.505063 0.101664 25.092027 5.019007 -0.393836 -3.609340 -1.673077 0.039766 12.061682 -72.889136 11.443354 -53.057473 -111.885308 -23.726913 -0.000001 0.000003 -0.000005 0.150124 2.610681 0.362228 0.000002 0.000017 -3.006698 -5.000132 -8.000010 0.000009 5.405286 75.149252 -3.920019 -64.281021 111.131973 38.510089 0.000002 -0.000000 -0.000000 3.039555 -0.808785 -0.494970 -0.000003 -0.000005 3.014160 -5.000164 8.000130 -0.000005 4.541790 -175.762310 -1.676697 -179.999991 0.000005 -1.193994 176.781374 -2.288389 -0.511657 -0.000001 -0.000001 0.031799 69.228434 6.956600 1.947107 25.456948 -7.355613 0.000001 3.112777 173.869992 -0.078607 -0.000005 -0.000004 -1.224230 -6.224272 1.817053 0.288188 -0.000007 -0.000001 -0.132972 70.544338 -6.948515 -1.896825 25.539580 7.355458 -0.119193 
53.445702 -12.856415 95.695900 -2.968275 0.671337 -0.969150 -1.770025 -0.247882 0.046470 0.464397 -0.501552 0.093014 2.109500 -0.500452 0.098978 25.094854 4.965391 -0.381954 -3.611543 -1.622912 0.044827 12.025420 -72.905357 11.401432 -53.049902 -111.799938 -23.630446 -0.000003 0.000004 -0.000004 0.171162 2.660300 0.366213 0.000004 0.000017 -3.006698 -5.000131 -8.000009 0.000014 5.380556 75.112389 -3.898488 -64.223333 111.140135 38.469644 0.000000 0.000000 0.000002 3.018811 -0.796686 -0.494598 -0.000001 -0.000005 3.014161 -5.000164 8.000131 -0.000004 4.542749 -175.767296 -1.680731 -179.999991 0.000004 -1.193994 176.787958 -2.287409 -0.511339 -0.000000 -0.000001 0.031799 69.229179 6.956600 1.947060 25.456948 -7.355613 0.000000 3.109500 173.864979 -0.081225 -0.000005 -0.000004 -1.224260 -6.224025 1.817829 0.288188 -0.000007 -0.000002 -0.132972 70.545500 -6.948491 -1.896849 25.539476 7.355463 -0.118770 
53.446800 -12.856817 95.697899 -2.962956 0.674462 -0.966791 -1.770887 -0.245277 0.045755 0.462823 -0.496810 0.090550 2.107928 -0.495745 0.096453 25.096239 4.912652 -0.370471 -3.612190 -1.574049 0.049595 11.982477 -72.919537 11.352611 -53.046917 -111.713584 -23.538362 -0.000003 0.000004 -0.000004 0.192563 2.710015 0.370196 0.000003 0.000017 -3.006700 -5.000130 -8.000009 0.000012 5.354217 75.075370 -3.875243 -64.164525 111.148543 38.428707 -0.000001 -0.000000 0.000001 2.998641 -0.784196 -0.494207 -0.000001 -0.000005 3.014159 -5.000165 8.000130 -0.000008 4.543206 -175.772282 -1.684632 -179.999991 0.000005 -1.193994 176.794351 -2.287422 -0.511083 -0.000001 -0.000001 0.031799 69.229828 6.956630 1.947125 25.456950 -7.355613 0.000000 3.106002 173.860963 -0.083538 -0.000005 -0.000004 -1.224280 -6.223427 1.818587 0.288188 -0.000007 -0.000001 -0.132972 70.546353 -6.948498 -1.896796 25.539481 7.355465 -0.118390 
53.441601 -12.860916 95.689789 -2.957224 0.677243 -0.964442 -1.771765 -0.242631 0.045115 0.461182 -0.491946 0.088294 2.106286 -0.490913 0.094135 25.095671 4.861010 -0.359493 -3.610848 -1.526855 0.053985 11.931263 -72.931346 11.295254 -53.044195 -111.627298 -23.446047 -0.000003 0.000004 -0.000004 0.214425 2.759861 0.374179 0.000003 0.000017 -3.006701 -5.000131 -8.000009 0.000009 5.325703 75.038091 -3.849677 -64.103818 111.157456 38.386602 -0.000000 0.000000 0.000002 2.979193 -0.771203 -0.493794 -0.000003 -0.000006 3.014160 -5.000164 8.000130 -0.000007 4.543054 -175.776271 -1.688300 -179.999991 0.000005 -1.193994 176.800444 -2.287437 -0.511838 -0.000001 -0.000001 0.031799 69.230463 6.956624 1.947085 25.456950 -7.355612 -0.000001 3.102214 173.856947 -0.085528 -0.000005 -0.000004 -1.224280 -6.222379 1.819336 0.288189 -0.000008 -0.000002 -0.132972 70.546886 -6.948503 -1.896864 25.539484 7.355465 -0.118060 
53.442299 -12.863613 95.691391 -2.950999 0.679603 -0.962119 -1.772686 -0.239934 0.044566 0.459462 -0.486935 0.086290 2.104565 -0.485931 0.092069 25.092879 4.810726 -0.349137 -3.607091 -1.481700 0.057908 11.869712 -72.939966 11.227230 -53.046111 -111.540029 -23.358084 -0.000003 0.000004 -0.000006 0.236846 2.809876 0.378168 0.000003 0.000017 -3.006699 -5.000131 -8.000009 0.000007 5.294574 75.000470 -3.821321 -64.041090 111.167005 38.343497 0.000001 -0.000000 0.000002 2.960617 -0.757603 -0.493349 -0.000004 -0.000006 3.014159 -5.000164 8.000131 -0.000005 4.542118 -175.780246 -1.691763 -179.999991 0.000005 -1.193994 176.806222 -2.286440 -0.511551 -0.000001 -0.000001 0.031799 69.231180 6.956588 1.947132 25.456948 -7.355612 0.000000 3.098074 173.852930 -0.087128 -0.000005 -0.000005 -1.224270 -6.220771 1.820056 0.288188 -0.000007 -0.000002 -0.132972 70.547002 -6.948535 -1.896763 25.539483 7.355463 -0.117790 
53.442600 -12.858116 95.697784 -2.944178 0.681471 -0.959821 -1.773636 -0.237178 0.044125 0.457645 -0.481752 0.084584 2.102753 -0.480771 0.090299 25.087357 4.762015 -0.339513 -3.600488 -1.438935 0.061277 11.796308 -72.945095 11.146974 -53.052562 -111.451707 -23.274068 -0.000005 0.000004 -0.000003 0.259923 2.860080 0.382173 0.000003 0.000018 -3.006700 -5.000133 -8.000010 0.000009 5.260317 74.962521 -3.789645 -63.976121 111.177243 38.299340 0.000001 -0.000000 -0.000000 2.943079 -0.743283 -0.492876 -0.000004 -0.000005 3.014160 -5.000167 8.000130 -0.000005 4.540305 -175.783224 -1.694924 -179.999991 0.000005 -1.193994 176.811591 -2.286452 -0.511336 -0.000001 -0.000001 0.031799 69.231720 6.956614 1.947102 25.456950 -7.355613 0.000001 3.093519 173.850909 -0.088159 -0.000005 -0.000005 -1.224230 -6.218523 1.820761 0.288188 -0.000007 -0.000001 -0.132972 70.546777 -6.948503 -1.896872 25.539580 7.355455 -0.117582 
